<mxfile host="app.diagrams.net" modified="2023-11-19T01:03:53.922Z" agent="Mozilla/5.0 (Macintosh; Intel Mac OS X 10_15_7) AppleWebKit/537.36 (KHTML, like Gecko) Chrome/119.0.0.0 Safari/537.36" etag="VHbMHM9HLCWgFNR8ux4J" version="22.1.3" type="device">
  <diagram name="Page-1" id="tP8vDsU2KuwzR8Z6rXOF">
    <mxGraphModel dx="1050" dy="914" grid="1" gridSize="10" guides="1" tooltips="1" connect="1" arrows="1" fold="1" page="1" pageScale="1" pageWidth="850" pageHeight="1100" math="0" shadow="0">
      <root>
        <mxCell id="0" />
        <mxCell id="1" parent="0" />
        <mxCell id="H1t5wN48XXnYJKo-ZUT3-3" style="rounded=0;orthogonalLoop=1;jettySize=auto;html=1;exitX=1;exitY=0.3333333333333333;exitDx=0;exitDy=0;exitPerimeter=0;entryX=0;entryY=0.5;entryDx=0;entryDy=0;" edge="1" parent="1" source="H1t5wN48XXnYJKo-ZUT3-1" target="H1t5wN48XXnYJKo-ZUT3-2">
          <mxGeometry relative="1" as="geometry" />
        </mxCell>
        <mxCell id="H1t5wN48XXnYJKo-ZUT3-4" value="Open Application" style="edgeLabel;html=1;align=center;verticalAlign=middle;resizable=0;points=[];" vertex="1" connectable="0" parent="H1t5wN48XXnYJKo-ZUT3-3">
          <mxGeometry x="0.0271" y="3" relative="1" as="geometry">
            <mxPoint x="-1" as="offset" />
          </mxGeometry>
        </mxCell>
        <mxCell id="H1t5wN48XXnYJKo-ZUT3-6" style="rounded=0;orthogonalLoop=1;jettySize=auto;html=1;exitX=1;exitY=0.3333333333333333;exitDx=0;exitDy=0;exitPerimeter=0;entryX=0;entryY=0;entryDx=0;entryDy=0;" edge="1" parent="1" source="H1t5wN48XXnYJKo-ZUT3-1" target="H1t5wN48XXnYJKo-ZUT3-5">
          <mxGeometry relative="1" as="geometry" />
        </mxCell>
        <mxCell id="H1t5wN48XXnYJKo-ZUT3-7" value="Press &quot;Log In&quot; button" style="edgeLabel;html=1;align=center;verticalAlign=middle;resizable=0;points=[];" vertex="1" connectable="0" parent="H1t5wN48XXnYJKo-ZUT3-6">
          <mxGeometry x="0.0606" y="-3" relative="1" as="geometry">
            <mxPoint x="1" as="offset" />
          </mxGeometry>
        </mxCell>
        <mxCell id="H1t5wN48XXnYJKo-ZUT3-9" style="rounded=0;orthogonalLoop=1;jettySize=auto;html=1;exitX=1;exitY=0.3333333333333333;exitDx=0;exitDy=0;exitPerimeter=0;entryX=0;entryY=0.5;entryDx=0;entryDy=0;" edge="1" parent="1" source="H1t5wN48XXnYJKo-ZUT3-1" target="H1t5wN48XXnYJKo-ZUT3-5">
          <mxGeometry relative="1" as="geometry">
            <Array as="points">
              <mxPoint x="330" y="420" />
              <mxPoint x="490" y="390" />
            </Array>
          </mxGeometry>
        </mxCell>
        <mxCell id="H1t5wN48XXnYJKo-ZUT3-10" value="Username and password" style="edgeLabel;html=1;align=center;verticalAlign=middle;resizable=0;points=[];" vertex="1" connectable="0" parent="H1t5wN48XXnYJKo-ZUT3-9">
          <mxGeometry x="0.6736" y="4" relative="1" as="geometry">
            <mxPoint x="-11" y="9" as="offset" />
          </mxGeometry>
        </mxCell>
        <mxCell id="H1t5wN48XXnYJKo-ZUT3-1" value="Registered User" style="shape=umlActor;verticalLabelPosition=bottom;verticalAlign=top;html=1;outlineConnect=0;" vertex="1" parent="1">
          <mxGeometry x="80" y="390" width="80" height="160" as="geometry" />
        </mxCell>
        <mxCell id="H1t5wN48XXnYJKo-ZUT3-2" value="App Opened" style="ellipse;whiteSpace=wrap;html=1;" vertex="1" parent="1">
          <mxGeometry x="500" y="160" width="120" height="80" as="geometry" />
        </mxCell>
        <mxCell id="H1t5wN48XXnYJKo-ZUT3-5" value="Log In" style="ellipse;whiteSpace=wrap;html=1;" vertex="1" parent="1">
          <mxGeometry x="650" y="300" width="120" height="80" as="geometry" />
        </mxCell>
        <mxCell id="H1t5wN48XXnYJKo-ZUT3-11" style="rounded=0;orthogonalLoop=1;jettySize=auto;html=1;exitX=0;exitY=1;exitDx=0;exitDy=0;entryX=0.5;entryY=0.5;entryDx=0;entryDy=0;entryPerimeter=0;" edge="1" parent="1" source="H1t5wN48XXnYJKo-ZUT3-5" target="H1t5wN48XXnYJKo-ZUT3-1">
          <mxGeometry relative="1" as="geometry">
            <Array as="points">
              <mxPoint x="420" y="440" />
            </Array>
          </mxGeometry>
        </mxCell>
        <mxCell id="H1t5wN48XXnYJKo-ZUT3-12" value="Access Granted" style="edgeLabel;html=1;align=center;verticalAlign=middle;resizable=0;points=[];" vertex="1" connectable="0" parent="H1t5wN48XXnYJKo-ZUT3-11">
          <mxGeometry x="-0.5024" y="4" relative="1" as="geometry">
            <mxPoint as="offset" />
          </mxGeometry>
        </mxCell>
      </root>
    </mxGraphModel>
  </diagram>
</mxfile>
